<?xml version="1.0" encoding="UTF-8"?>
<svg width="512px" height="199px" viewBox="0 0 512 199" version="1.1" xmlns="http://www.w3.org/2000/svg" xmlns:xlink="http://www.w3.org/1999/xlink">
    <!-- Generator: Sketch 52.1 (67048) - http://www.bohemiancoding.com/sketch -->
    <title>Group 6</title>
    <desc>Created with Sketch.</desc>
    <defs>
        <polygon id="path-1" points="0.167041527 0.351814815 12.5626276 0.351814815 12.5626276 21.9099341 0.167041527 21.9099341"></polygon>
        <polygon id="path-3" points="0 58.6481852 330.759351 58.6481852 330.759351 0.437037037 0 0.437037037"></polygon>
        <polygon id="path-5" points="0.226280193 0.304280431 111.3119 0.304280431 111.3119 116.663145 0.226280193 116.663145"></polygon>
        <polygon id="path-7" points="0.284541063 0.558453085 36.9859903 0.558453085 36.9859903 27.0720652 0.284541063 27.0720652"></polygon>
    </defs>
    <g id="Elemente-&amp;-Tabellen" stroke="none" stroke-width="1" fill="none" fill-rule="evenodd">
        <g id="SIDEBAR-II" transform="translate(-50.000000, -50.000000)">
            <g id="Group-6" transform="translate(50.000000, 50.000000)">
                <g id="Group-55" transform="translate(181.000000, 140.000000)">
                    <path d="M51.740053,20.24408 C53.2588849,20.24408 54.5657568,20.0771319 55.6602406,19.7454207 C56.7542962,19.4132726 57.6569457,18.8853319 58.3669043,18.1602874 C59.0764347,17.436117 59.5992691,16.4995467 59.9345511,15.3523244 C60.2698331,14.2055393 60.4376882,12.8262504 60.4376882,11.2162059 C60.4376882,9.60528741 60.2698331,8.22687259 59.9345511,7.07965037 C59.5992691,5.93242815 59.0764347,4.99585778 58.3669043,4.27125037 C57.6569457,3.54708 56.7542962,3.01913926 55.6602406,2.68611704 C54.5657568,2.35484296 53.2588849,2.18789481 51.740053,2.18789481 L47.4507555,2.18789481 L47.4507555,20.24408 L51.740053,20.24408 Z M52.7463273,0.437124444 C55.9604101,0.518413333 58.3818913,1.4383763 60.00863,3.20007259 C61.6353687,4.96089481 62.4489521,7.63293926 62.4489521,11.2162059 C62.4489521,14.7990356 61.6353687,17.47108 60.00863,19.2319022 C58.3818913,20.9940356 55.9604101,21.9148726 52.7463273,21.9952874 L45.4394916,21.9952874 L45.4394916,0.437124444 L52.7463273,0.437124444 Z" id="Fill-1" fill="#1D1D1B"></path>
                    <path d="M76.6928713,11.0347044 C76.4659243,10.3704081 76.1456294,9.78259333 75.73113,9.26863778 C75.3174871,8.75468222 74.8143499,8.34343037 74.2230032,8.03007481 C73.6312283,7.71846741 72.9602361,7.56288222 72.2108829,7.56288222 C71.4418325,7.56288222 70.7614198,7.71846741 70.1700731,8.03007481 C69.57787,8.34343037 69.0751611,8.75468222 68.6610899,9.26863778 C68.2470188,9.78259333 67.9168752,10.3760896 67.6698027,11.0504378 C67.4235867,11.7243489 67.2604418,12.4135563 67.1820809,13.118497 L77.0624094,13.118497 C77.0431404,12.3938896 76.91939,11.6990007 76.6928713,11.0347044 M67.4629812,16.8477341 C67.6505336,17.5819563 67.9511313,18.2405711 68.3652025,18.8244526 C68.7792736,19.4087711 69.302108,19.891697 69.9337057,20.2736674 C70.5640188,20.6569489 71.3236488,20.8479341 72.2108829,20.8479341 C73.5721365,20.8479341 74.6370744,20.4856304 75.4061248,19.761023 C76.1751753,19.0368526 76.7074301,18.0692526 77.0033176,16.8617193 L78.8672801,16.8617193 C78.472478,18.6339044 77.7475323,20.0027044 76.6928713,20.9685563 C75.637782,21.9344081 74.1437859,22.4177711 72.2108829,22.4177711 C71.008064,22.4177711 69.9671054,22.2014378 69.0901481,21.7692081 C68.2123344,21.3365415 67.4972374,20.7426081 66.9457135,19.9869711 C66.3933331,19.2317711 65.9839722,18.35726 65.7176307,17.3603785 C65.4517173,16.3643711 65.3181184,15.31286 65.3181184,14.2054081 C65.3181184,13.1788081 65.4517173,12.1723119 65.7176307,11.1867933 C65.9839722,10.1995267 66.3933331,9.31889704 66.9457135,8.54403037 C67.4972374,7.76872667 68.2123344,7.14594889 69.0901481,6.67263778 C69.9671054,6.19932667 71.008064,5.96201556 72.2108829,5.96201556 C73.4338273,5.96201556 74.4790679,6.21462296 75.3466048,6.71721556 C76.2141417,7.21980815 76.91939,7.87973407 77.4619217,8.69437111 C78.0040252,9.51031926 78.3941171,10.4464526 78.6304845,11.5023341 C78.8672801,12.5595267 78.9657665,13.6307044 78.9263719,14.7193637 L67.1820809,14.7193637 C67.1820809,15.4028896 67.2758571,16.1117637 67.4629812,16.8477341" id="Fill-3" fill="#1D1D1B"></path>
                    <path d="M92.8296565,21.9952 L92.8296565,19.1868 L92.7705647,19.1868 C92.2772762,20.2343778 91.5626074,21.0345926 90.62613,21.5874444 C89.6892245,22.1411704 88.6482658,22.4178148 87.504967,22.4178148 C86.5389437,22.4178148 85.7155116,22.2814593 85.035099,22.0104963 C84.3546863,21.7382222 83.802306,21.3505704 83.377958,20.8479778 C82.95361,20.3453852 82.6431636,19.730037 82.446619,19.0058667 C82.249218,18.2812593 82.1503034,17.4556963 82.1503034,16.5304889 L82.1503034,6.4157037 L84.0142658,6.4157037 L84.0142658,16.5597704 C84.0536604,17.9696519 84.3739554,19.0364593 84.9760071,19.7610667 C85.5772025,20.4856741 86.6177329,20.8479778 88.0967419,20.8479778 C88.9047587,20.8479778 89.5954483,20.6727259 90.1679541,20.320037 C90.7391753,19.9673481 91.2127665,19.5001556 91.5874431,18.915837 C91.9616915,18.3315185 92.2383098,17.6619778 92.4155854,16.9080889 C92.5928609,16.1528889 92.6819269,15.3832667 92.6819269,14.5983481 L92.6819269,6.4157037 L94.5458894,6.4157037 L94.5458894,21.9952 L92.8296565,21.9952 Z" id="Fill-5" fill="#1D1D1B"></path>
                    <path d="M104.870349,6.41552889 L104.870349,8.01595852 L101.764173,8.01595852 L101.764173,18.5227659 C101.764173,19.1477289 101.848101,19.6345881 102.015527,19.987277 C102.182954,20.3395289 102.602592,20.5361956 103.273156,20.5755289 C103.805839,20.5755289 104.338094,20.5458104 104.870349,20.4854993 L104.870349,22.0859289 C104.593731,22.0859289 104.317969,22.0959807 104.042207,22.1156474 C103.765588,22.1357511 103.489826,22.146677 103.214064,22.146677 C101.970994,22.146677 101.103029,21.8997511 100.610597,21.4067733 C100.117309,20.9137956 99.8809414,20.0025733 99.9006387,18.6744178 L99.9006387,8.01595852 L97.2380798,8.01595852 L97.2380798,6.41552889 L99.9006387,6.41552889 L99.9006387,1.7357363 L101.764173,1.7357363 L101.764173,6.41552889 L104.870349,6.41552889 Z" id="Fill-7" fill="#1D1D1B"></path>
                    <path d="M117.087889,9.44957111 C116.870362,9.01734148 116.579613,8.66028222 116.214785,8.37839333 C115.849529,8.09606741 115.430748,7.88978593 114.957585,7.75911185 C114.484422,7.62843778 113.981713,7.56288222 113.44903,7.56288222 C113.034958,7.56288222 112.615321,7.60746 112.191829,7.69880074 C111.767481,7.78839333 111.378246,7.94048222 111.022838,8.15069704 C110.668287,8.36309704 110.38182,8.63930444 110.16515,8.98237852 C109.948052,9.32457852 109.840145,9.74763037 109.840145,10.2497859 C109.840145,10.6728378 109.942913,11.0303341 110.150163,11.3209637 C110.357841,11.6133415 110.618616,11.8607044 110.9342,12.0613044 C111.249357,12.2632156 111.594488,12.4288526 111.969592,12.5595267 C112.344269,12.6902007 112.689828,12.7968378 113.005413,12.8772526 L115.489839,13.4497711 C116.022951,13.531497 116.550067,13.6774674 117.072473,13.8876822 C117.595308,14.1000822 118.05905,14.3762896 118.463273,14.7193637 C118.867067,15.0602526 119.198067,15.4846156 119.453704,15.9867711 C119.710625,16.4893637 119.839085,17.0837341 119.839085,17.76726 C119.839085,18.6142378 119.651533,19.3327267 119.276428,19.927097 C118.901751,20.5205933 118.42345,21.0035193 117.84238,21.3758748 C117.260454,21.7495415 116.604449,22.014823 115.875221,22.1760896 C115.144709,22.3373563 114.42533,22.4177711 113.715371,22.4177711 C111.920777,22.4177711 110.466176,21.9855415 109.351566,21.118897 C108.237385,20.2540007 107.601077,18.8655341 107.443499,16.95306 L109.30789,16.95306 C109.386251,18.2405711 109.844855,19.2121044 110.683274,19.8663489 C111.521265,20.5205933 112.561795,20.8479341 113.804009,20.8479341 C114.257475,20.8479341 114.725499,20.7972378 115.209367,20.6958452 C115.692379,20.5966378 116.141563,20.4253193 116.555206,20.1840748 C116.969705,19.9423933 117.309269,19.6347193 117.57561,19.2628007 C117.84238,18.8908822 117.975123,18.4328674 117.975123,17.8883193 C117.975123,17.4263711 117.881775,17.0387193 117.694651,16.7266748 C117.50667,16.4141933 117.254887,16.1528452 116.939731,15.9408822 C116.624146,15.7297933 116.2636,15.5545415 115.859806,15.4129415 C115.455583,15.2722156 115.046222,15.1515933 114.632151,15.0502007 L112.236362,14.5069637 C111.624462,14.345697 111.062233,14.1599563 110.549675,13.9484304 C110.036689,13.7377785 109.588362,13.4764304 109.203837,13.1635119 C108.819312,12.8514674 108.518714,12.4681859 108.301187,12.0162896 C108.084517,11.5626452 107.976182,11.005423 107.976182,10.3398156 C107.976182,9.55489704 108.148748,8.88098593 108.493878,8.31808222 C108.838581,7.75474148 109.287764,7.30153407 109.840145,6.95889704 C110.391669,6.61626 111.008708,6.36452667 111.68912,6.20326 C112.369105,6.04330444 113.044807,5.96201556 113.715371,5.96201556 C114.484422,5.96201556 115.19909,6.06297111 115.859806,6.26400815 C116.520093,6.46591926 117.102447,6.7779637 117.605156,7.20057852 C118.108722,7.6227563 118.507378,8.1467637 118.803265,8.76997852 C119.099153,9.39494148 119.267008,10.1291637 119.305974,10.9743933 L117.442868,10.9743933 C117.422742,10.3900748 117.304559,9.88354889 117.087889,9.44957111" id="Fill-9" fill="#1D1D1B"></path>
                    <path d="M132.617955,8.55928296 C131.927265,7.89498667 130.96167,7.56283852 129.7186,7.56283852 C128.831366,7.56283852 128.052039,7.75469778 127.381903,8.13666815 C126.711339,8.51863852 126.154248,9.02297926 125.710631,9.64619407 C125.267014,10.2694089 124.931304,10.9800311 124.704357,11.7745644 C124.47741,12.5695348 124.364365,13.3793644 124.364365,14.2053644 C124.364365,15.0309274 124.47741,15.840757 124.704357,16.6352904 C124.931304,17.4320089 125.267014,18.140883 125.710631,18.7645348 C126.154248,19.3890607 126.711339,19.8916533 127.381903,20.2736237 C128.052039,20.6569052 128.831366,20.8478904 129.7186,20.8478904 C130.29025,20.8478904 130.83321,20.736883 131.346195,20.5148681 C131.858753,20.2950385 132.31179,19.9869274 132.706592,19.5940311 C133.100538,19.2024459 133.425972,18.7348163 133.682464,18.1898311 C133.938957,17.6465941 134.096964,17.0539719 134.156056,16.4097793 L136.020018,16.4097793 C135.763525,18.3008385 135.083113,19.7749644 133.978352,20.8325941 C132.874019,21.8897867 131.454102,22.4177274 129.7186,22.4177274 C128.554748,22.4177274 127.524494,22.2013941 126.627411,21.7691644 C125.7299,21.3364978 124.975409,20.7469348 124.364365,20.0026607 C123.752893,19.2583867 123.28915,18.3864978 122.973565,17.3909274 C122.657981,16.394483 122.500402,15.332483 122.500402,14.2053644 C122.500402,13.0778089 122.657981,12.0162459 122.973565,11.0193644 C123.28915,10.0242311 123.752893,9.1532163 124.364365,8.40763111 C124.975409,7.66379407 125.7299,7.06986074 126.627411,6.62583111 C127.524494,6.18354963 128.554748,5.96197185 129.7186,5.96197185 C131.355616,5.96197185 132.741277,6.40556444 133.875155,7.29187556 C135.008605,8.17774963 135.684308,9.51552 135.901406,11.3073719 L134.037444,11.3073719 C133.780951,10.1387348 133.307788,9.22357926 132.617955,8.55928296" id="Fill-11" fill="#1D1D1B"></path>
                    <g id="Group-15" transform="translate(139.165589, 0.085222)">
                        <mask id="mask-2" fill="white">
                            <use xlink:href="#path-1"></use>
                        </mask>
                        <g id="Clip-14"></g>
                        <path d="M2.03100401,0.351771111 L2.03100401,9.01777852 L2.09009586,9.01777852 C2.44507516,8.0711563 3.07581643,7.31158593 3.98403247,6.73731926 C4.89053571,6.16480074 5.88610492,5.87679333 6.97116831,5.87679333 C8.03653441,5.87679333 8.92847878,6.01883037 9.64914243,6.29940815 C10.3685215,6.58173407 10.9448811,6.97900074 11.379506,7.4929563 C11.8128462,8.00560074 12.1190105,8.63580815 12.296286,9.37964519 C12.4739898,10.1239193 12.5626276,10.959097 12.5626276,11.8864896 L12.5626276,21.9099341 L10.6986651,21.9099341 L10.6986651,12.1880452 C10.6986651,11.5237489 10.6395732,10.9044674 10.5209613,10.3306378 C10.4027776,9.75724519 10.1955279,9.25902296 9.89964049,8.83640815 C9.60418124,8.41379333 9.20424075,8.08120815 8.70196003,7.83952667 C8.1988229,7.59828222 7.57279185,7.47766 6.82301048,7.47766 C6.07322911,7.47766 5.40823169,7.61357852 4.82630543,7.88454148 C4.24437917,8.15681556 3.75151889,8.52917111 3.34772458,9.00204519 C2.94307387,9.4753563 2.62748913,10.0400081 2.40097038,10.6925044 C2.17402342,11.3467489 2.05027309,12.0573711 2.03100401,12.8213119 L2.03100401,21.9099341 L0.167041527,21.9099341 L0.167041527,0.351771111 L2.03100401,0.351771111 Z" id="Fill-13" fill="#1D1D1B" mask="url(#mask-2)"></path>
                    </g>
                    <path d="M166.593071,11.0347044 C166.366124,10.3704081 166.045829,9.78259333 165.631329,9.26863778 C165.217687,8.75468222 164.714549,8.34343037 164.123203,8.03007481 C163.531428,7.71846741 162.860007,7.56288222 162.111082,7.56288222 C161.342032,7.56288222 160.661619,7.71846741 160.070273,8.03007481 C159.478069,8.34343037 158.975361,8.75468222 158.561289,9.26863778 C158.147218,9.78259333 157.817075,10.3760896 157.570002,11.0504378 C157.323786,11.7243489 157.160641,12.4135563 157.08228,13.118497 L166.962609,13.118497 C166.94334,12.3938896 166.81959,11.6990007 166.593071,11.0347044 M157.362753,16.8477341 C157.550733,17.5819563 157.851331,18.2405711 158.265402,18.8244526 C158.679473,19.4087711 159.202308,19.891697 159.833477,20.2736674 C160.464218,20.6569489 161.223848,20.8479341 162.111082,20.8479341 C163.472336,20.8479341 164.537274,20.4856304 165.306324,19.761023 C166.075375,19.0368526 166.60763,18.0692526 166.903517,16.8617193 L168.76748,16.8617193 C168.372677,18.6339044 167.647304,20.0027044 166.593071,20.9685563 C165.537982,21.9344081 164.043985,22.4177711 162.111082,22.4177711 C160.908264,22.4177711 159.867305,22.2014378 158.990348,21.7692081 C158.112534,21.3365415 157.397437,20.7426081 156.845485,19.9869711 C156.293533,19.2317711 155.884172,18.35726 155.61783,17.3603785 C155.351917,16.3643711 155.218318,15.31286 155.218318,14.2054081 C155.218318,13.1788081 155.351917,12.1723119 155.61783,11.1867933 C155.884172,10.1995267 156.293533,9.31889704 156.845485,8.54403037 C157.397437,7.76872667 158.112534,7.14594889 158.990348,6.67263778 C159.867305,6.19932667 160.908264,5.96201556 162.111082,5.96201556 C163.334027,5.96201556 164.378839,6.21462296 165.246804,6.71721556 C166.114341,7.21980815 166.81959,7.87973407 167.362121,8.69437111 C167.904225,9.51031926 168.294317,10.4464526 168.530684,11.5023341 C168.76748,12.5595267 168.865966,13.6307044 168.826571,14.7193637 L157.08228,14.7193637 C157.08228,15.4028896 157.176057,16.1117637 157.362753,16.8477341" id="Fill-16" fill="#1D1D1B"></path>
                    <mask id="mask-4" fill="white">
                        <use xlink:href="#path-3"></use>
                    </mask>
                    <g id="Clip-19"></g>
                    <polygon id="Fill-18" fill="#1D1D1B" mask="url(#mask-4)" points="181.547291 21.9952 183.558555 21.9952 183.558555 0.437037037 181.547291 0.437037037"></polygon>
                    <path d="M190.184721,6.41552889 L190.184721,9.10286963 L190.243813,9.10286963 C190.598792,8.15624741 191.229534,7.39667704 192.13775,6.82284741 C193.044253,6.24989185 194.039822,5.96188444 195.124885,5.96188444 C196.190251,5.96188444 197.082196,6.10392148 197.802431,6.3849363 C198.522239,6.66682519 199.09817,7.06409185 199.533223,7.57804741 C199.966563,8.09069185 200.272728,8.72089926 200.450003,9.46517333 C200.627707,10.2094474 200.716345,11.0446252 200.716345,11.9715807 L200.716345,21.9950252 L198.852382,21.9950252 L198.852382,12.2731363 C198.852382,11.609277 198.79329,10.9899956 198.674678,10.4157289 C198.556495,9.84277333 198.349245,9.34411407 198.053358,8.92149926 C197.757898,8.49932148 197.357958,8.16629926 196.855249,7.92461778 C196.35254,7.68337333 195.726509,7.56275111 194.976728,7.56275111 C194.226946,7.56275111 193.561949,7.69910667 192.980023,7.97006963 C192.398096,8.2423437 191.905236,8.61426222 191.501442,9.0871363 C191.096791,9.56044741 190.781206,10.1250993 190.554687,10.7775956 C190.32774,11.432277 190.20399,12.1424622 190.184721,12.90684 L190.184721,21.9950252 L188.32033,21.9950252 L188.32033,6.41552889 L190.184721,6.41552889 Z" id="Fill-20" fill="#1D1D1B" mask="url(#mask-4)"></path>
                    <path d="M205.005043,21.9952 L206.869005,21.9952 L206.869005,6.4157037 L205.005043,6.4157037 L205.005043,21.9952 Z M205.005043,3.48624444 L206.869005,3.48624444 L206.869005,0.4366 L205.005043,0.4366 L205.005043,3.48624444 Z" id="Fill-21" fill="#1D1D1B" mask="url(#mask-4)"></path>
                    <path d="M217.252,6.41552889 L217.252,8.01595852 L214.145824,8.01595852 L214.145824,18.5227659 C214.145824,19.1477289 214.229323,19.6345881 214.397178,19.987277 C214.564605,20.3395289 214.984243,20.5361956 215.654807,20.5755289 C216.187062,20.5755289 216.719745,20.5458104 217.252,20.4854993 L217.252,22.0859289 C216.975382,22.0859289 216.69962,22.0959807 216.423858,22.1156474 C216.147239,22.1357511 215.871477,22.146677 215.595715,22.146677 C214.352645,22.146677 213.48468,21.8997511 212.992248,21.4067733 C212.49896,20.9137956 212.262592,20.0025733 212.28229,18.6744178 L212.28229,8.01595852 L209.619731,8.01595852 L209.619731,6.41552889 L212.28229,6.41552889 L212.28229,1.7357363 L214.145824,1.7357363 L214.145824,6.41552889 L217.252,6.41552889 Z" id="Fill-22" fill="#1D1D1B" mask="url(#mask-4)"></path>
                    <path d="M220.713198,21.9952 L222.57716,21.9952 L222.57716,6.4157037 L220.713198,6.4157037 L220.713198,21.9952 Z M220.713198,3.48624444 L222.57716,3.48624444 L222.57716,0.4366 L220.713198,0.4366 L220.713198,3.48624444 Z" id="Fill-23" fill="#1D1D1B" mask="url(#mask-4)"></path>
                    <path d="M236.598843,13.4806696 C236.480659,13.7026844 236.253712,13.86264 235.91843,13.9635956 C235.58272,14.0649881 235.287261,14.1349141 235.031196,14.1742474 C234.242448,14.3162844 233.428437,14.4425881 232.590874,14.5518474 C231.752455,14.6628548 230.988114,14.8284919 230.297425,15.0505067 C229.606735,15.2725215 229.041081,15.5893733 228.596607,16.0010622 C228.15299,16.4140622 227.931182,17.0036252 227.931182,17.7675659 C227.931182,18.251803 228.024958,18.6787881 228.212082,19.0507067 C228.399206,19.4243733 228.650561,19.7455956 228.966574,20.0165585 C229.28173,20.2888326 229.646986,20.4955511 230.060629,20.63584 C230.475129,20.77744 230.899477,20.847803 231.333673,20.847803 C232.043204,20.847803 232.723616,20.7372326 233.374055,20.5152178 C234.024922,20.2949511 234.591861,19.9719807 235.075301,19.5493659 C235.558312,19.1263141 235.943266,18.6141067 236.229305,18.0088104 C236.514915,17.4048252 236.657935,16.7212993 236.657935,15.9560474 L236.657935,13.4806696 L236.598843,13.4806696 Z M227.280743,8.83015852 C227.5959,8.16629926 228.024958,7.62306222 228.567061,7.20044741 C229.109593,6.77783259 229.745045,6.46578815 230.475129,6.26387704 C231.204785,6.06284 232.013658,5.96188444 232.900892,5.96188444 C233.571884,5.96188444 234.242448,6.02787704 234.913012,6.15855111 C235.58272,6.2905363 236.184772,6.53615111 236.717027,6.89845481 C237.24971,7.26075852 237.683478,7.76903259 238.018332,8.42327704 C238.35447,9.07752148 238.521897,9.92843259 238.521897,10.9746993 L238.521897,19.2469363 C238.521897,20.0121881 238.886725,20.3941585 239.616381,20.3941585 C239.833051,20.3941585 240.030452,20.3548252 240.208156,20.2735363 L240.208156,21.874403 C239.990629,21.9150474 239.798795,21.9443289 239.63094,21.9639956 C239.463085,21.9854104 239.251125,21.9950252 238.995488,21.9950252 C238.521897,21.9950252 238.141654,21.9303437 237.856472,21.7983585 C237.570005,21.6676844 237.348196,21.4810696 237.19019,21.2398252 C237.032183,20.9981437 236.928986,20.7118844 236.880171,20.3801733 C236.830928,20.0475881 236.805664,19.6813511 236.805664,19.278403 L236.746572,19.278403 C236.41129,19.7809956 236.071298,20.2285215 235.725739,20.6218548 C235.380609,21.01344 234.996083,21.3403437 234.572592,21.6016919 C234.148244,21.8647881 233.665232,22.0653881 233.123129,22.2069881 C232.580597,22.347277 231.93444,22.41764 231.185516,22.41764 C230.475129,22.41764 229.810131,22.3319807 229.18881,22.1606622 C228.567061,21.9910919 228.024958,21.7183807 227.561215,21.3464622 C227.097901,20.9741067 226.733073,20.5007956 226.466732,19.9269659 C226.200818,19.3526993 226.067219,18.6744178 226.067219,17.8881881 C226.067219,16.8017141 226.304015,15.951677 226.777178,15.3367659 C227.251197,14.723603 227.876372,14.2555363 228.655699,13.9325659 C229.435027,13.6113437 230.31284,13.3849585 231.288712,13.2547215 C232.264584,13.1244844 233.255871,12.9977437 234.261717,12.8771215 C234.656519,12.83604 235.00165,12.7857807 235.297538,12.7250326 C235.592997,12.6651585 235.839641,12.5598326 236.037042,12.4081807 C236.233587,12.25784 236.386883,12.0511215 236.495646,11.7902104 C236.603553,11.5288622 236.657935,11.1866622 236.657935,10.7636104 C236.657935,10.1194178 236.554738,9.59147704 236.347917,9.17847704 C236.140239,8.76591407 235.854628,8.43857333 235.489372,8.19732889 C235.124116,7.95564741 234.700196,7.78869926 234.217613,7.69910667 C233.734173,7.60776593 233.216049,7.56275111 232.664525,7.56275111 C231.481403,7.56275111 230.514951,7.84901037 229.76517,8.42327704 C229.015389,8.9975437 228.621443,9.91750667 228.582049,11.1866622 L226.718086,11.1866622 C226.777178,10.2793733 226.96473,9.49445481 227.280743,8.83015852 Z" id="Fill-24" fill="#1D1D1B" mask="url(#mask-4)"></path>
                    <path d="M249.052836,6.41552889 L249.052836,8.01595852 L245.94666,8.01595852 L245.94666,18.5227659 C245.94666,19.1477289 246.030587,19.6345881 246.198442,19.987277 C246.365441,20.3395289 246.785079,20.5361956 247.455643,20.5755289 C247.988326,20.5755289 248.520581,20.5458104 249.052836,20.4854993 L249.052836,22.0859289 C248.776217,22.0859289 248.500455,22.0959807 248.224693,22.1156474 C247.948075,22.1357511 247.672313,22.146677 247.396551,22.146677 C246.153481,22.146677 245.285516,21.8997511 244.793084,21.4067733 C244.299795,20.9137956 244.063428,20.0025733 244.083125,18.6744178 L244.083125,8.01595852 L241.420566,8.01595852 L241.420566,6.41552889 L244.083125,6.41552889 L244.083125,1.7357363 L245.94666,1.7357363 L245.94666,6.41552889 L249.052836,6.41552889 Z" id="Fill-25" fill="#1D1D1B" mask="url(#mask-4)"></path>
                    <path d="M252.513177,21.9952 L254.377568,21.9952 L254.377568,6.4157037 L252.513177,6.4157037 L252.513177,21.9952 Z M252.513177,3.48624444 L254.377568,3.48624444 L254.377568,0.4366 L252.513177,0.4366 L252.513177,3.48624444 Z" id="Fill-26" fill="#1D1D1B" mask="url(#mask-4)"></path>
                    <polygon id="Fill-27" fill="#1D1D1B" mask="url(#mask-4)" points="259.051391 6.41552889 263.843397 20.092603 263.902917 20.092603 268.635832 6.41552889 270.558886 6.41552889 264.849243 21.9950252 262.867525 21.9950252 256.980179 6.41552889"></polygon>
                    <path d="M283.738681,11.0347044 C283.511734,10.3704081 283.191011,9.78259333 282.77694,9.26863778 C282.362869,8.75468222 281.86016,8.34343037 281.268385,8.03007481 C280.677038,7.71846741 280.005618,7.56288222 279.256693,7.56288222 C278.487642,7.56288222 277.807229,7.71846741 277.215883,8.03007481 C276.62368,8.34343037 276.120543,8.75468222 275.7069,9.26863778 C275.292828,9.78259333 274.962257,10.3760896 274.715612,11.0504378 C274.469396,11.7243489 274.306251,12.4135563 274.227891,13.118497 L284.108219,13.118497 C284.08895,12.3938896 283.964772,11.6990007 283.738681,11.0347044 M274.508363,16.8477341 C274.696343,17.5819563 274.996941,18.2405711 275.411012,18.8244526 C275.825083,19.4087711 276.347918,19.891697 276.979087,20.2736674 C277.609828,20.6569489 278.369458,20.8479341 279.256693,20.8479341 C280.617946,20.8479341 281.682884,20.4856304 282.451935,19.761023 C283.220985,19.0368526 283.75324,18.0692526 284.049127,16.8617193 L285.91309,16.8617193 C285.518288,18.6339044 284.792914,20.0027044 283.738681,20.9685563 C282.683592,21.9344081 281.189596,22.4177711 279.256693,22.4177711 C278.053874,22.4177711 277.012915,22.2014378 276.135958,21.7692081 C275.258144,21.3365415 274.543047,20.7426081 273.991095,19.9869711 C273.439143,19.2317711 273.029782,18.35726 272.76344,17.3603785 C272.497527,16.3643711 272.363928,15.31286 272.363928,14.2054081 C272.363928,13.1788081 272.497527,12.1723119 272.76344,11.1867933 C273.029782,10.1995267 273.439143,9.31889704 273.991095,8.54403037 C274.543047,7.76872667 275.258144,7.14594889 276.135958,6.67263778 C277.012915,6.19932667 278.053874,5.96201556 279.256693,5.96201556 C280.479637,5.96201556 281.524449,6.21462296 282.392414,6.71721556 C283.259951,7.21980815 283.964772,7.87973407 284.507731,8.69437111 C285.049835,9.51031926 285.439927,10.4464526 285.676294,11.5023341 C285.91309,12.5595267 286.011576,13.6307044 285.972182,14.7193637 L274.227891,14.7193637 C274.227891,15.4028896 274.321239,16.1117637 274.508363,16.8477341" id="Fill-28" fill="#1D1D1B" mask="url(#mask-4)"></path>
                    <path d="M301.058459,8.01600222 L301.058459,21.9950689 L299.194925,21.9950689 L299.194925,8.01600222 L296.591458,8.01600222 L296.591458,6.41557259 L299.194925,6.41557259 L299.194925,4.9960763 C299.194925,4.33178 299.244168,3.71818 299.343083,3.1552763 C299.441569,2.59062444 299.628694,2.10769852 299.904884,1.70518741 C300.180646,1.30355037 300.560461,0.991505926 301.043901,0.769928148 C301.526912,0.547913333 302.143095,0.436905926 302.892876,0.436905926 C303.168638,0.436905926 303.425131,0.448268889 303.661926,0.467935556 C303.898722,0.487165185 304.164635,0.518631852 304.460523,0.557965185 L304.460523,2.1876763 C304.20403,2.14834296 303.967234,2.11338 303.750992,2.08278741 C303.533466,2.05263185 303.316796,2.03733556 303.100126,2.03733556 C302.586712,2.03733556 302.192766,2.11775037 301.916148,2.27901704 C301.640386,2.4402837 301.438274,2.65661704 301.310242,2.92758 C301.181782,3.19985407 301.107274,3.51758 301.088005,3.8798837 C301.06788,4.24175037 301.058459,4.63377259 301.058459,5.05638741 L301.058459,6.41557259 L304.075998,6.41557259 L304.075998,8.01600222 L301.058459,8.01600222 Z" id="Fill-29" fill="#1D1D1B" mask="url(#mask-4)"></path>
                    <path d="M314.370783,3.72836296 L316.382047,3.72836296 L316.382047,0.678718519 L314.370783,0.678718519 L314.370783,3.72836296 Z M309.134303,3.72836296 L311.145995,3.72836296 L311.145995,0.678718519 L309.134303,0.678718519 L309.134303,3.72836296 Z M317.240163,21.9952 L317.240163,19.1868 L317.180643,19.1868 C316.687783,20.2343778 315.973114,21.0345926 315.036208,21.5874444 C314.099303,22.1411704 313.058772,22.4178148 311.915473,22.4178148 C310.949022,22.4178148 310.12559,22.2814593 309.445605,22.0104963 C308.765193,21.7382222 308.212812,21.3505704 307.788464,20.8479778 C307.364116,20.3453852 307.05367,19.730037 306.857125,19.0058667 C306.659724,18.2812593 306.560382,17.4556963 306.560382,16.5304889 L306.560382,6.4157037 L308.424772,6.4157037 L308.424772,16.5597704 C308.463739,17.9696519 308.784462,19.0364593 309.386085,19.7610667 C309.987281,20.4856741 311.028239,20.8479778 312.50682,20.8479778 C313.315265,20.8479778 314.005527,20.6727259 314.578032,20.320037 C315.149682,19.9673481 315.622845,19.5001556 315.997521,18.915837 C316.37177,18.3315185 316.648388,17.6619778 316.825664,16.9080889 C317.003367,16.1528889 317.092005,15.3832667 317.092005,14.5983481 L317.092005,6.4157037 L318.955968,6.4157037 L318.955968,21.9952 L317.240163,21.9952 Z" id="Fill-30" fill="#1D1D1B" mask="url(#mask-4)"></path>
                    <path d="M324.931353,6.41552889 L324.931353,10.0687215 L324.990445,10.0687215 C325.464036,8.80087704 326.198402,7.82541037 327.194399,7.13969926 C328.190397,6.45617333 329.378228,6.14325481 330.759608,6.20356593 L330.759608,8.10598815 C329.910483,8.06665481 329.141861,8.18159556 328.452028,8.45255852 C327.761338,8.72526963 327.164853,9.11292148 326.662144,9.61507704 C326.159435,10.1194178 325.769344,10.7177215 325.493153,11.4126104 C325.216963,12.1061881 325.07951,12.8675067 325.07951,13.6913215 L325.07951,21.9950252 L323.21512,21.9950252 L323.21512,6.41552889 L324.931353,6.41552889 Z" id="Fill-31" fill="#1D1D1B" mask="url(#mask-4)"></path>
                    <polygon id="Fill-32" fill="#1D1D1B" mask="url(#mask-4)" points="2.24784541 36.6675385 14.5547937 54.904657 14.6138855 54.904657 14.6138855 36.6675385 16.6251494 36.6675385 16.6251494 58.2257015 14.3766617 58.2257015 2.07014166 39.9898941 2.01104981 39.9898941 2.01104981 58.2257015 -0.000214100906 58.2257015 -0.000214100906 36.6675385"></polygon>
                    <path d="M31.8449833,47.2652496 C31.6180364,46.6009533 31.2973132,46.0131385 30.883242,45.499183 C30.4691709,44.9852274 29.966462,44.5739756 29.3746871,44.26062 C28.7833404,43.9490126 28.1119199,43.7934274 27.362995,43.7934274 C26.5939445,43.7934274 25.9135318,43.9490126 25.3221851,44.26062 C24.729982,44.5739756 24.2268449,44.9852274 23.8132019,45.499183 C23.3991308,46.0131385 23.068559,46.6066348 22.8219147,47.280983 C22.5756987,47.9548941 22.4125538,48.6441015 22.3341929,49.3490422 L32.2145215,49.3490422 C32.1952524,48.6244348 32.0710739,47.9295459 31.8449833,47.2652496 M22.6146651,53.0782793 C22.8026457,53.8125015 23.1032433,54.4711163 23.5173145,55.0549978 C23.9313856,55.6393163 24.4542201,56.1222422 25.0853895,56.5042126 C25.7161308,56.8874941 26.4757608,57.0784793 27.362995,57.0784793 C28.7242485,57.0784793 29.7891864,56.7161756 30.5582369,55.9920052 C31.3272873,55.2673978 31.8595422,54.2997978 32.1554296,53.0922644 L34.0193921,53.0922644 C33.62459,54.8644496 32.8992162,56.2332496 31.8449833,57.1991015 C30.789894,58.1649533 29.2958979,58.6483163 27.362995,58.6483163 C26.1601761,58.6483163 25.1192175,58.431983 24.2422602,57.9997533 C23.3644464,57.5670867 22.6493494,56.9731533 22.0973973,56.2175163 C21.5454451,55.4623163 21.1360842,54.5878052 20.8697427,53.5909237 C20.6038294,52.5949163 20.4702304,51.5434052 20.4702304,50.4359533 C20.4702304,49.4093533 20.6038294,48.402857 20.8697427,47.4173385 C21.1360842,46.4300719 21.5454451,45.5494422 22.0973973,44.7745756 C22.6493494,43.9992719 23.3644464,43.3764941 24.2422602,42.903183 C25.1192175,42.4298719 26.1601761,42.1925607 27.362995,42.1925607 C28.5859393,42.1925607 29.6307517,42.4451681 30.4987168,42.9477607 C31.3662537,43.4503533 32.0710739,44.1102793 32.6140338,44.9249163 C33.1561373,45.7408644 33.5462291,46.6769978 33.7825965,47.7328793 C34.0193921,48.7900719 34.1178785,49.8612496 34.078484,50.9499089 L22.3341929,50.9499089 C22.3341929,51.6334348 22.4275409,52.3423089 22.6146651,53.0782793" id="Fill-33" fill="#1D1D1B" mask="url(#mask-4)"></path>
                    <path d="M43.3966264,42.6460304 L43.3966264,44.24646 L40.2904505,44.24646 L40.2904505,54.7532674 C40.2904505,55.3782304 40.374378,55.8650896 40.5418049,56.2177785 C40.7092318,56.5700304 41.1288696,56.766697 41.7994336,56.8060304 C42.3316885,56.8060304 42.8643715,56.7767489 43.3966264,56.7160007 L43.3966264,58.3164304 C43.120008,58.3164304 42.8442461,58.3264822 42.5684841,58.3465859 C42.2918657,58.3662526 42.0161038,58.3771785 41.7403418,58.3771785 C40.4972719,58.3771785 39.6293069,58.1302526 39.1368748,57.6372748 C38.6435863,57.144297 38.4072189,56.2330748 38.4269162,54.9049193 L38.4269162,44.24646 L35.7643573,44.24646 L35.7643573,42.6460304 L38.4269162,42.6460304 L38.4269162,37.9662378 L40.2904505,37.9662378 L40.2904505,42.6460304 L43.3966264,42.6460304 Z" id="Fill-34" fill="#1D1D1B" mask="url(#mask-4)"></path>
                    <polygon id="Fill-35" fill="#1D1D1B" mask="url(#mask-4)" points="58.2477785 56.6248348 58.2477785 58.2257015 45.4972132 58.2257015 45.4972132 56.685583 55.4666078 44.2466348 46.1776259 44.2466348 46.1776259 42.6462052 57.832851 42.6462052 57.832851 44.0049533 47.7457009 56.6248348"></polygon>
                    <polygon id="Fill-36" fill="#1D1D1B" mask="url(#mask-4)" points="61.7089338 42.6460304 65.6141343 55.9918304 65.6727979 55.9918304 69.4002947 42.6460304 71.5006246 42.6460304 75.2276931 55.9918304 75.286785 55.9918304 79.1919855 42.6460304 81.1741317 42.6460304 76.2639415 58.2255267 74.2222753 58.2255267 70.4652326 45.1214081 70.4061408 45.1214081 66.678644 58.2255267 64.6369777 58.2255267 59.7267876 42.6460304"></polygon>
                    <path d="M94.5307739,47.2652496 C94.3038269,46.6009533 93.9831038,46.0131385 93.5690326,45.499183 C93.1549614,44.9852274 92.6522525,44.5739756 92.0604776,44.26062 C91.4691309,43.9490126 90.7977105,43.7934274 90.0487855,43.7934274 C89.2797351,43.7934274 88.5993224,43.9490126 88.0079757,44.26062 C87.4157726,44.5739756 86.9126354,44.9852274 86.4989925,45.499183 C86.0844931,46.0131385 85.7543495,46.6066348 85.5077053,47.280983 C85.2614893,47.9548941 85.0983444,48.6441015 85.0199834,49.3490422 L94.8998838,49.3490422 C94.8806147,48.6244348 94.7568644,47.9295459 94.5307739,47.2652496 M85.3004556,53.0782793 C85.4884362,53.8125015 85.7890339,54.4711163 86.203105,55.0549978 C86.6171762,55.6393163 87.1400106,56.1222422 87.7711801,56.5042126 C88.4019213,56.8874941 89.1615514,57.0784793 90.0487855,57.0784793 C91.4100391,57.0784793 92.474977,56.7161756 93.2440274,55.9920052 C94.0130779,55.2673978 94.5453327,54.2997978 94.8412202,53.0922644 L96.7051827,53.0922644 C96.3103806,54.8644496 95.5850067,56.2332496 94.5307739,57.1991015 C93.4756846,58.1649533 91.9816885,58.6483163 90.0487855,58.6483163 C88.8459666,58.6483163 87.805008,58.431983 86.9280507,57.9997533 C86.050237,57.5670867 85.3347118,56.9731533 84.7831878,56.2175163 C84.2308075,55.4623163 83.8218748,54.5878052 83.5555332,53.5909237 C83.2896199,52.5949163 83.156021,51.5434052 83.156021,50.4359533 C83.156021,49.4093533 83.2896199,48.402857 83.5555332,47.4173385 C83.8218748,46.4300719 84.2308075,45.5494422 84.7831878,44.7745756 C85.3347118,43.9992719 86.050237,43.3764941 86.9280507,42.903183 C87.805008,42.4298719 88.8459666,42.1925607 90.0487855,42.1925607 C91.2717299,42.1925607 92.3165423,42.4451681 93.1845074,42.9477607 C94.0520442,43.4503533 94.7568644,44.1102793 95.2998243,44.9249163 C95.8419278,45.7408644 96.2320197,46.6769978 96.4683871,47.7328793 C96.7051827,48.7900719 96.8032409,49.8612496 96.7642745,50.9499089 L85.0199834,50.9499089 C85.0199834,51.6334348 85.1133314,52.3423089 85.3004556,53.0782793" id="Fill-37" fill="#1D1D1B" mask="url(#mask-4)"></path>
                    <path d="M101.733899,42.6460304 L101.733899,46.299223 L101.792991,46.299223 C102.266154,45.0313785 103.00052,44.0559119 103.996946,43.3702007 C104.992943,42.6866748 106.180775,42.3737563 107.561726,42.4340674 L107.561726,44.3364896 C106.71303,44.2971563 105.944408,44.4125341 105.254146,44.68306 C104.563457,44.9557711 103.9674,45.343423 103.464691,45.8455785 C102.961554,46.3499193 102.57189,46.948223 102.2957,47.6431119 C102.01951,48.3366896 101.881629,49.0980081 101.881629,49.921823 L101.881629,58.2255267 L100.017666,58.2255267 L100.017666,42.6460304 L101.733899,42.6460304 Z" id="Fill-38" fill="#1D1D1B" mask="url(#mask-4)"></path>
                    <polygon id="Fill-39" fill="#1D1D1B" mask="url(#mask-4)" points="111.939233 36.6675385 111.939233 50.1942719 120.399644 42.6462052 122.884928 42.6462052 116.376688 48.4124719 123.328545 58.2257015 120.991419 58.2257015 114.956771 49.7406274 111.939233 52.3073459 111.939233 58.2257015 110.07527 58.2257015 110.07527 36.6675385"></polygon>
                    <path d="M125.636124,58.2255704 L127.500515,58.2255704 L127.500515,42.6460741 L125.636124,42.6460741 L125.636124,58.2255704 Z M125.636124,39.7170519 L127.500515,39.7170519 L127.500515,36.6674074 L125.636124,36.6674074 L125.636124,39.7170519 Z" id="Fill-40" fill="#1D1D1B" mask="url(#mask-4)"></path>
                    <path d="M133.65309,42.6460304 L133.65309,45.3333711 L133.712182,45.3333711 C134.067161,44.3867489 134.697902,43.6276156 135.606118,43.0533489 C136.512621,42.4803933 137.508191,42.1923859 138.593254,42.1923859 C139.65862,42.1923859 140.550565,42.334423 141.2708,42.6154378 C141.990607,42.8973267 142.566539,43.2945933 143.001592,43.8085489 C143.434932,44.3211933 143.741096,44.9514007 143.918372,45.6956748 C144.096076,46.4399489 144.184713,47.2751267 144.184713,48.2020822 L144.184713,58.2255267 L142.320751,58.2255267 L142.320751,48.5036378 C142.320751,47.8397785 142.261659,47.220497 142.143047,46.6462304 C142.024863,46.0732748 141.817614,45.5746156 141.521726,45.1520007 C141.226267,44.729823 140.826327,44.3968007 140.323618,44.1551193 C139.820909,43.9138748 139.194878,43.7932526 138.445096,43.7932526 C137.695315,43.7932526 137.030317,43.9296081 136.448391,44.2005711 C135.866465,44.4728452 135.373605,44.8447637 134.96981,45.3176378 C134.56516,45.7909489 134.249575,46.3556007 134.023056,47.008097 C133.796109,47.6627785 133.672359,48.3729637 133.65309,49.1373415 L133.65309,58.2255267 L131.789127,58.2255267 L131.789127,42.6460304 L133.65309,42.6460304 Z" id="Fill-41" fill="#1D1D1B" mask="url(#mask-4)"></path>
                    <path d="M151.313503,44.2465474 L151.313503,58.2256141 L149.449968,58.2256141 L149.449968,44.2465474 L146.846501,44.2465474 L146.846501,42.6461178 L149.449968,42.6461178 L149.449968,41.2266215 C149.449968,40.5623252 149.498783,39.9487252 149.598126,39.3858215 C149.696184,38.8216067 149.883309,38.3382437 150.159927,37.9357326 C150.435689,37.5340956 150.815504,37.2220511 151.298944,37.0004733 C151.781955,36.7784585 152.398138,36.6674511 153.147919,36.6674511 C153.423681,36.6674511 153.680174,36.6788141 153.91697,36.6984807 C154.153337,36.7177104 154.419679,36.749177 154.715566,36.7885104 L154.715566,38.4182215 C154.459073,38.3788881 154.222278,38.3439252 154.005608,38.3133326 C153.788081,38.2836141 153.571411,38.2678807 153.355169,38.2678807 C152.841755,38.2678807 152.447381,38.3482956 152.171191,38.5095622 C151.895429,38.6712659 151.693318,38.8871622 151.565285,39.1581252 C151.436397,39.4303993 151.362318,39.7481252 151.343049,40.1104289 C151.322923,40.4722956 151.313503,40.8643178 151.313503,41.2869326 L151.313503,42.6461178 L154.331041,42.6461178 L154.331041,44.2465474 L151.313503,44.2465474 Z" id="Fill-42" fill="#1D1D1B" mask="url(#mask-4)"></path>
                    <path d="M160.957678,44.3673007 C160.287114,44.7492711 159.730023,45.2531748 159.286406,45.8768267 C158.842789,46.5000415 158.506651,47.2106637 158.280132,48.005197 C158.052757,48.8001674 157.94014,49.609997 157.94014,50.435997 C157.94014,51.261123 158.052757,52.0713896 158.280132,52.865923 C158.506651,53.6626415 158.842789,54.3715156 159.286406,54.9947304 C159.730023,55.6196933 160.287114,56.1218489 160.957678,56.5042563 C161.627386,56.8871007 162.406713,57.078523 163.294375,57.078523 C164.181609,57.078523 164.960937,56.8871007 165.631501,56.5042563 C166.301208,56.1218489 166.859155,55.6196933 167.302772,54.9947304 C167.74639,54.3715156 168.081672,53.6626415 168.308618,52.865923 C168.534709,52.0713896 168.649039,51.261123 168.649039,50.435997 C168.649039,49.609997 168.534709,48.8001674 168.308618,48.005197 C168.081672,47.2106637 167.74639,46.5000415 167.302772,45.8768267 C166.859155,45.2531748 166.301208,44.7492711 165.631501,44.3673007 C164.960937,43.9853304 164.181609,43.7934711 163.294375,43.7934711 C162.406713,43.7934711 161.627386,43.9853304 160.957678,44.3673007 M166.385992,42.8564637 C167.283075,43.3004933 168.037567,43.8944267 168.649039,44.6382637 C169.260083,45.3838489 169.723397,46.2544267 170.038982,47.249997 C170.354139,48.2468785 170.512145,49.3084415 170.512145,50.435997 C170.512145,51.5631156 170.354139,52.6251156 170.038982,53.62156 C169.723397,54.6171304 169.260083,55.4890193 168.649039,56.2328563 C168.037567,56.9775674 167.283075,57.5671304 166.385992,57.99936 C165.488481,58.4320267 164.458228,58.64836 163.294375,58.64836 C162.130523,58.64836 161.100269,58.4320267 160.203186,57.99936 C159.305675,57.5671304 158.550756,56.9775674 157.94014,56.2328563 C157.328668,55.4890193 156.864925,54.6171304 156.54934,53.62156 C156.233327,52.6251156 156.076177,51.5631156 156.076177,50.435997 C156.076177,49.3084415 156.233327,48.2468785 156.54934,47.249997 C156.864925,46.2544267 157.328668,45.3838489 157.94014,44.6382637 C158.550756,43.8944267 159.305675,43.3004933 160.203186,42.8564637 C161.100269,42.4141822 162.130523,42.1921674 163.294375,42.1921674 C164.458228,42.1921674 165.488481,42.4141822 166.385992,42.8564637" id="Fill-43" fill="#1D1D1B" mask="url(#mask-4)"></path>
                    <path d="M175.748197,42.6460304 L175.748197,46.299223 L175.807289,46.299223 C176.28088,45.0313785 177.015246,44.0559119 178.011243,43.3702007 C179.007241,42.6866748 180.195073,42.3737563 181.576452,42.4340674 L181.576452,44.3364896 C180.727327,44.2971563 179.958705,44.4125341 179.268872,44.68306 C178.578183,44.9557711 177.981697,45.343423 177.478988,45.8455785 C176.97628,46.3499193 176.586188,46.948223 176.309998,47.6431119 C176.033807,48.3366896 175.896355,49.0980081 175.896355,49.921823 L175.896355,58.2255267 L174.031964,58.2255267 L174.031964,42.6460304 L175.748197,42.6460304 Z" id="Fill-44" fill="#1D1D1B" mask="url(#mask-4)"></path>
                    <path d="M185.806529,42.6460304 L185.806529,45.27306 L185.895595,45.27306 C186.387599,44.3072081 187.034612,43.5515711 187.83278,43.0083341 C188.631376,42.465097 189.652209,42.1923859 190.894423,42.1923859 C191.900697,42.1923859 192.812339,42.4449933 193.631489,42.9475859 C194.449354,43.4506156 194.996596,44.2158674 195.273214,45.2420304 C195.72668,44.2158674 196.397244,43.4506156 197.284478,42.9475859 C198.171713,42.4449933 199.118895,42.1923859 200.124741,42.1923859 C203.497258,42.1923859 205.183089,44.0148304 205.183089,47.6588452 L205.183089,58.2255267 L203.319555,58.2255267 L203.319555,47.7484378 C203.319555,46.4609267 203.053641,45.4793415 202.52053,44.8036822 C201.988275,44.1302081 201.05137,43.7932526 199.71067,43.7932526 C198.901797,43.7932526 198.231233,43.9488378 197.69855,44.2604452 C197.166295,44.5738007 196.741947,44.9907341 196.42679,45.5143044 C196.111205,46.0383119 195.888969,46.6366156 195.760936,47.3105267 C195.632476,47.9857489 195.569102,48.6845711 195.569102,49.4096156 L195.569102,58.2255267 L193.705139,58.2255267 L193.705139,47.6588452 C193.705139,47.1348378 193.650758,46.6366156 193.542851,46.1633044 C193.434088,45.6899933 193.256384,45.2774304 193.00974,44.9247415 C192.763524,44.5738007 192.43338,44.2971563 192.019309,44.0948081 C191.605238,43.8942081 191.101672,43.7932526 190.509898,43.7932526 C189.72115,43.7932526 189.036027,43.939223 188.454101,44.2311637 C187.872174,44.5231044 187.399011,44.9247415 187.034612,45.438697 C186.669355,45.9522156 186.397876,46.5562007 186.2206,47.2497785 C186.043324,47.9451044 185.954687,48.7042378 185.954687,49.5302378 L185.954687,58.2255267 L184.090296,58.2255267 L184.090296,42.6460304 L185.806529,42.6460304 Z" id="Fill-45" fill="#1D1D1B" mask="url(#mask-4)"></path>
                    <path d="M219.17514,49.7112148 C219.056956,49.9332296 218.830009,50.0931852 218.494727,50.1941407 C218.159017,50.2955333 217.863558,50.3654593 217.607493,50.4047926 C216.818745,50.5468296 216.004734,50.6731333 215.167171,50.7823926 C214.328752,50.8934 213.564412,51.059037 212.873722,51.2810519 C212.183032,51.5030667 211.617378,51.8203556 211.172904,52.2316074 C210.729287,52.6446074 210.507479,53.2341704 210.507479,53.9981111 C210.507479,54.4823481 210.601255,54.9093333 210.788379,55.2812519 C210.975503,55.6549185 211.226858,55.9761407 211.542871,56.2471037 C211.858027,56.5193778 212.223283,56.7260963 212.637355,56.8663852 C213.051426,57.0079852 213.475774,57.0783481 213.90997,57.0783481 C214.619501,57.0783481 215.299913,56.9677778 215.95078,56.745763 C216.601219,56.5254963 217.168158,56.2025259 217.651598,55.7799111 C218.134609,55.3572963 218.519563,54.8446519 218.805602,54.2393556 C219.091212,53.6353704 219.234232,52.9518444 219.234232,52.1865926 L219.234232,49.7112148 L219.17514,49.7112148 Z M209.85704,45.0607037 C210.172197,44.3968444 210.601255,43.8536074 211.143358,43.4309926 C211.68589,43.0083778 212.32177,42.6963333 213.051426,42.4944222 C213.781082,42.2933852 214.589955,42.1924296 215.477189,42.1924296 C216.148181,42.1924296 216.818745,42.2584222 217.489309,42.3890963 C218.159017,42.5210815 218.761069,42.7666963 219.293324,43.129 C219.826007,43.4913037 220.259775,43.9995778 220.594629,44.6538222 C220.930767,45.3080667 221.098194,46.1589778 221.098194,47.2052444 L221.098194,55.4774815 C221.098194,56.2427333 221.463022,56.6247037 222.192678,56.6247037 C222.409348,56.6247037 222.606749,56.5853704 222.784453,56.5040815 L222.784453,58.1049481 C222.566926,58.1455926 222.375092,58.1748741 222.207237,58.1945407 C222.039382,58.2159556 221.827422,58.2255704 221.571785,58.2255704 C221.098194,58.2255704 220.717951,58.1608889 220.43234,58.0289037 C220.146302,57.8982296 219.924065,57.7120519 219.766487,57.4703704 C219.60848,57.2286889 219.505283,56.9424296 219.456468,56.6107185 C219.406797,56.2781333 219.381961,55.9118963 219.381961,55.5089481 L219.322869,55.5089481 C218.987587,56.0115407 218.647595,56.4590667 218.302036,56.8524 C217.956906,57.2439852 217.57238,57.5713259 217.148889,57.832237 C216.724541,58.0953333 216.241529,58.2959333 215.699426,58.4375333 C215.156894,58.5778222 214.510738,58.6481852 213.761813,58.6481852 C213.051426,58.6481852 212.386428,58.5625259 211.765108,58.3912074 C211.143358,58.221637 210.601255,57.9489259 210.137512,57.5770074 C209.674198,57.2046519 209.30937,56.7313407 209.043029,56.1575111 C208.777115,55.5832444 208.643516,54.904963 208.643516,54.1187333 C208.643516,53.0322593 208.880312,52.1822222 209.353475,51.5673111 C209.827494,50.9541481 210.452669,50.4860815 211.231996,50.1635481 C212.011324,49.8418889 212.889137,49.6159407 213.865009,49.4852667 C214.840881,49.3550296 215.832168,49.2287259 216.838014,49.1076667 C217.232816,49.0665852 217.577947,49.0163259 217.873835,48.9555778 C218.169294,48.8957037 218.415938,48.7903778 218.613339,48.6387259 C218.809884,48.4883852 218.96318,48.2816667 219.071943,48.0207556 C219.17985,47.7594074 219.234232,47.4172074 219.234232,46.9941556 C219.234232,46.349963 219.131035,45.8220222 218.924214,45.4090222 C218.716536,44.9964593 218.430925,44.6695556 218.065669,44.4278741 C217.700413,44.1861926 217.276493,44.0192444 216.79391,43.9296519 C216.31047,43.8383111 215.792346,43.7932963 215.240822,43.7932963 C214.0577,43.7932963 213.091249,44.0795556 212.341467,44.6538222 C211.591686,45.2280889 211.19774,46.1480519 211.158346,47.4172074 L209.294383,47.4172074 C209.353475,46.5099185 209.541027,45.725 209.85704,45.0607037 Z" id="Fill-46" fill="#1D1D1B" mask="url(#mask-4)"></path>
                    <path d="M231.629133,42.6460304 L231.629133,44.24646 L228.522957,44.24646 L228.522957,54.7532674 C228.522957,55.3782304 228.606884,55.8650896 228.774739,56.2177785 C228.941738,56.5700304 229.361376,56.766697 230.03194,56.8060304 C230.564623,56.8060304 231.096878,56.7767489 231.629133,56.7160007 L231.629133,58.3164304 C231.352514,58.3164304 231.076752,58.3264822 230.80099,58.3465859 C230.524372,58.3662526 230.24861,58.3771785 229.972848,58.3771785 C228.729778,58.3771785 227.861813,58.1302526 227.369381,57.6372748 C226.876092,57.144297 226.639725,56.2330748 226.659422,54.9049193 L226.659422,44.24646 L223.996864,44.24646 L223.996864,42.6460304 L226.659422,42.6460304 L226.659422,37.9662378 L228.522957,37.9662378 L228.522957,42.6460304 L231.629133,42.6460304 Z" id="Fill-47" fill="#1D1D1B" mask="url(#mask-4)"></path>
                    <path d="M235.089646,58.2255704 L236.954036,58.2255704 L236.954036,42.6460741 L235.089646,42.6460741 L235.089646,58.2255704 Z M235.089646,39.7170519 L236.954036,39.7170519 L236.954036,36.6674074 L235.089646,36.6674074 L235.089646,39.7170519 Z" id="Fill-48" fill="#1D1D1B" mask="url(#mask-4)"></path>
                    <path d="M245.384688,44.3673007 C244.714124,44.7492711 244.156605,45.2531748 243.712988,45.8768267 C243.269799,46.5000415 242.93366,47.2106637 242.707142,48.005197 C242.479766,48.8001674 242.367149,49.609997 242.367149,50.435997 C242.367149,51.261123 242.479766,52.0713896 242.707142,52.865923 C242.93366,53.6626415 243.269799,54.3715156 243.712988,54.9947304 C244.156605,55.6196933 244.714124,56.1218489 245.384688,56.5042563 C246.054395,56.8871007 246.833723,57.078523 247.721385,57.078523 C248.608619,57.078523 249.387946,56.8871007 250.05851,56.5042563 C250.728218,56.1218489 251.286165,55.6196933 251.729782,54.9947304 C252.173399,54.3715156 252.508681,53.6626415 252.735628,52.865923 C252.961719,52.0713896 253.076049,51.261123 253.076049,50.435997 C253.076049,49.609997 252.961719,48.8001674 252.735628,48.005197 C252.508681,47.2106637 252.173399,46.5000415 251.729782,45.8768267 C251.286165,45.2531748 250.728218,44.7492711 250.05851,44.3673007 C249.387946,43.9853304 248.608619,43.7934711 247.721385,43.7934711 C246.833723,43.7934711 246.054395,43.9853304 245.384688,44.3673007 M250.813002,42.8564637 C251.710085,43.3004933 252.464576,43.8944267 253.076049,44.6382637 C253.687092,45.3838489 254.150407,46.2544267 254.465992,47.249997 C254.781148,48.2468785 254.939155,49.3084415 254.939155,50.435997 C254.939155,51.5631156 254.781148,52.6251156 254.465992,53.62156 C254.150407,54.6171304 253.687092,55.4890193 253.076049,56.2328563 C252.464576,56.9775674 251.710085,57.5671304 250.813002,57.99936 C249.915491,58.4320267 248.885237,58.64836 247.721385,58.64836 C246.557532,58.64836 245.527279,58.4320267 244.630196,57.99936 C243.732685,57.5671304 242.977765,56.9775674 242.367149,56.2328563 C241.755677,55.4890193 241.291935,54.6171304 240.97635,53.62156 C240.660337,52.6251156 240.503187,51.5631156 240.503187,50.435997 C240.503187,49.3084415 240.660337,48.2468785 240.97635,47.249997 C241.291935,46.2544267 241.755677,45.3838489 242.367149,44.6382637 C242.977765,43.8944267 243.732685,43.3004933 244.630196,42.8564637 C245.527279,42.4141822 246.557532,42.1921674 247.721385,42.1921674 C248.885237,42.1921674 249.915491,42.4141822 250.813002,42.8564637" id="Fill-49" fill="#1D1D1B" mask="url(#mask-4)"></path>
                    <path d="M260.294204,42.6460304 L260.294204,45.3333711 L260.353295,45.3333711 C260.708275,44.3867489 261.339016,43.6276156 262.247232,43.0533489 C263.153735,42.4803933 264.149733,42.1923859 265.234368,42.1923859 C266.299734,42.1923859 267.192107,42.334423 267.912342,42.6154378 C268.631721,42.8973267 269.208081,43.2945933 269.642706,43.8085489 C270.076046,44.3211933 270.38221,44.9514007 270.559486,45.6956748 C270.737189,46.4399489 270.825827,47.2751267 270.825827,48.2020822 L270.825827,58.2255267 L268.961865,58.2255267 L268.961865,48.5036378 C268.961865,47.8397785 268.902773,47.220497 268.784161,46.6462304 C268.665977,46.0732748 268.458728,45.5746156 268.163268,45.1520007 C267.867381,44.729823 267.467869,44.3968007 266.96516,44.1551193 C266.462023,43.9138748 265.835991,43.7932526 265.08621,43.7932526 C264.336857,43.7932526 263.671431,43.9296081 263.089505,44.2005711 C262.507579,44.4728452 262.014718,44.8447637 261.610924,45.3176378 C261.206273,45.7909489 260.890689,46.3556007 260.66417,47.008097 C260.437223,47.6627785 260.313473,48.3729637 260.294204,49.1373415 L260.294204,58.2255267 L258.430241,58.2255267 L258.430241,42.6460304 L260.294204,42.6460304 Z" id="Fill-50" fill="#1D1D1B" mask="url(#mask-4)"></path>
                    <path d="M294.654059,47.2652496 C294.427112,46.6009533 294.106389,46.0131385 293.692318,45.499183 C293.278247,44.9852274 292.775538,44.5739756 292.183763,44.26062 C291.592416,43.9490126 290.920996,43.7934274 290.172071,43.7934274 C289.40302,43.7934274 288.722608,43.9490126 288.131261,44.26062 C287.539058,44.5739756 287.035921,44.9852274 286.622278,45.499183 C286.207778,46.0131385 285.877635,46.6066348 285.63099,47.280983 C285.384774,47.9548941 285.221629,48.6441015 285.143269,49.3490422 L295.023597,49.3490422 C295.0039,48.6244348 294.88015,47.9295459 294.654059,47.2652496 M285.423741,53.0782793 C285.611721,53.8125015 285.912319,54.4711163 286.32639,55.0549978 C286.740461,55.6393163 287.263296,56.1222422 287.894465,56.5042126 C288.525206,56.8874941 289.284836,57.0784793 290.172071,57.0784793 C291.533324,57.0784793 292.598262,56.7161756 293.367313,55.9920052 C294.136363,55.2673978 294.668618,54.2997978 294.964505,53.0922644 L296.828468,53.0922644 C296.433666,54.8644496 295.708292,56.2332496 294.654059,57.1991015 C293.59897,58.1649533 292.104974,58.6483163 290.172071,58.6483163 C288.969252,58.6483163 287.928293,58.431983 287.051336,57.9997533 C286.173522,57.5670867 285.458425,56.9731533 284.906473,56.2175163 C284.354093,55.4623163 283.94516,54.5878052 283.678818,53.5909237 C283.412905,52.5949163 283.279306,51.5434052 283.279306,50.4359533 C283.279306,49.4093533 283.412905,48.402857 283.678818,47.4173385 C283.94516,46.4300719 284.354093,45.5494422 284.906473,44.7745756 C285.458425,43.9992719 286.173522,43.3764941 287.051336,42.903183 C287.928293,42.4298719 288.969252,42.1925607 290.172071,42.1925607 C291.395015,42.1925607 292.439827,42.4451681 293.307792,42.9477607 C294.175329,43.4503533 294.88015,44.1102793 295.423109,44.9249163 C295.965213,45.7408644 296.355305,46.6769978 296.591672,47.7328793 C296.828468,48.7900719 296.926526,49.8612496 296.88756,50.9499089 L285.143269,50.9499089 C285.143269,51.6334348 285.236617,52.3423089 285.423741,53.0782793" id="Fill-51" fill="#1D1D1B" mask="url(#mask-4)"></path>
                    <polygon id="Fill-52" fill="#1D1D1B" mask="url(#mask-4)" points="300.496616 58.2255704 302.981043 58.2255704 302.981043 55.0255852 300.496616 55.0255852"></polygon>
                    <polygon id="Fill-53" fill="#1D1D1B" mask="url(#mask-4)" points="310.761812 36.6675385 317.624603 55.9609756 317.683694 55.9609756 324.487821 36.6675385 326.618125 36.6675385 318.778606 58.2257015 316.441481 58.2257015 308.631508 36.6675385"></polygon>
                    <polygon id="Fill-54" fill="#1D1D1B" mask="url(#mask-4)" points="325.404687 58.2255704 327.889114 58.2255704 327.889114 55.0255852 325.404687 55.0255852"></polygon>
                </g>
                <g id="Group-21">
                    <path d="M81.9861836,8.73300137 L100.07314,26.6341003 L8.52241546,117.229726 L7.87024155,116.584253 C-1.75294686,107.059951 -1.75294686,91.6116468 7.87024155,82.0873441 L81.9861836,8.73300137 Z" id="Fill-1" fill="#D72F88"></path>
                    <path d="M116.831498,189.928842 L115.951304,190.656553 C98.4121739,188.819586 91.6305314,200.776602 82.0054106,191.249431 L7.21990338,117.232403 C-2.40618357,107.705232 -2.40618357,92.2578841 7.21990338,82.7307127 L7.87014493,82.0871529 L116.831498,189.928842 Z" id="Fill-3" fill="#344999"></path>
                    <g id="Group-7" transform="translate(81.159420, 81.679501)">
                        <mask id="mask-6" fill="white">
                            <use xlink:href="#path-5"></use>
                        </mask>
                        <g id="Clip-6"></g>
                        <path d="M0.845603865,109.569834 L0.226280193,108.955918 L110.006957,0.304280431 L110.657198,0.947840237 C106.779903,12.1876648 113.311304,22.5506033 110.657198,35.4485746 L35.8716908,109.465602 C26.2456039,118.992774 10.4716908,119.097005 0.845603865,109.569834" id="Fill-5" fill="#67B97F" mask="url(#mask-6)"></path>
                    </g>
                    <g id="Group-10" transform="translate(81.159420, 0.397802)">
                        <mask id="mask-8" fill="white">
                            <use xlink:href="#path-7"></use>
                        </mask>
                        <g id="Clip-9"></g>
                        <path d="M36.9859903,8.33519918 L18.0690821,27.0720652 L0.284541063,8.87165839 L1.50772947,7.67538303 C5.10193237,4.11811338 9.55120773,1.89481984 14.2178744,1.00550243 C16.9309179,0.488168322 19.6961353,0.417405431 22.4207729,0.804688821 C22.8120773,0.862064138 23.2033816,0.933783284 23.594686,1.00550243 C28.2613527,1.89481984 32.710628,4.11811338 36.3048309,7.67538303 L36.9859903,8.33519918 Z" id="Fill-8" fill="#D72F88" mask="url(#mask-8)"></path>
                    </g>
                    <path d="M192.32686,116.645549 L191.674686,117.291022 L100.072754,26.6341959 L100.09401,26.6141145 L118.145217,8.733097 L192.32686,82.1486401 C201.90657,91.6299112 201.90657,107.164278 192.32686,116.645549" id="Fill-11" fill="#EF811D"></path>
                    <path d="M93.7147826,141.062763 C94.458744,141.79908 95.2867633,142.430208 96.1998068,142.954236 C97.1138164,143.478264 98.0490821,143.825385 99.0075362,143.991773 C99.9650242,144.159118 100.918647,144.108436 101.865507,143.840685 C102.812367,143.572933 103.702222,143.026911 104.537005,142.200707 C105.393043,141.353465 105.951498,140.444066 106.210435,139.472511 C106.470338,138.502868 106.504155,137.532269 106.31285,136.560713 C106.12058,135.59107 105.75343,134.648203 105.213333,133.73211 C104.671304,132.81793 104.018164,131.981207 103.251981,131.222896 C101.31285,129.303692 99.3679227,128.238423 97.4181643,128.025179 C95.4674396,127.814802 93.748599,128.444975 92.2606763,129.916652 C91.3582609,130.808838 90.7833816,131.746924 90.5360386,132.728042 C90.2877295,133.711072 90.2655072,134.693147 90.4684058,135.674265 C90.6713043,136.656339 91.0664734,137.604944 91.6519807,138.519124 C92.2384541,139.43426 92.9263768,140.282459 93.7147826,141.062763 Z M115.730242,136.209768 L112.078068,139.824413 L109.710918,137.481587 L109.643285,137.548525 C110.138937,139.066102 110.110918,140.532998 109.558261,141.950168 C109.005604,143.366382 108.177585,144.621945 107.073237,145.714945 C105.697391,147.076653 104.253913,148.024302 102.743768,148.560761 C101.233623,149.096264 99.7234783,149.285602 98.2123671,149.129733 C96.7022222,148.972907 95.2085024,148.498604 93.7321739,147.706825 C92.2548792,146.915045 90.8626087,145.871771 89.5553623,144.577958 C87.9775845,143.015436 86.8268599,141.452915 86.106087,139.890394 C85.3833816,138.329786 85.00657,136.828465 84.9727536,135.388344 C84.9389372,133.950136 85.2046377,132.605641 85.7669565,131.355816 C86.3312077,130.106946 87.0867633,129.01299 88.0336232,128.076816 C88.574686,127.540357 89.1775845,127.044061 89.8423188,126.586971 C90.5080193,126.129881 91.2123671,125.755985 91.9563285,125.465283 C92.7002899,125.175538 93.4674396,124.985243 94.2558454,124.896311 C95.0452174,124.80738 95.8229952,124.851367 96.5891787,125.030187 L96.6568116,124.963249 L87.7292754,116.126494 L90.6152657,113.27016 C91.1505314,112.740394 92.0171981,112.740394 92.5524638,113.27016 L115.730242,136.209768 Z" id="Fill-13" fill="#1D1D1B"></path>
                    <path d="M102.541159,114.654626 L106.396232,110.839167 L123.88029,128.143563 L120.025217,131.959022 L102.541159,114.654626 Z M95.8783575,108.06029 L98.765314,105.203955 C99.3005797,104.67419 100.167246,104.67419 100.702512,105.203955 L103.38657,107.860432 L99.5314976,111.675891 L95.8783575,108.06029 Z" id="Fill-15" fill="#1D1D1B"></path>
                    <path d="M110.589565,106.688446 L114.241739,103.073801 L116.811787,105.61744 L116.948019,105.61744 C116.564444,104.078825 116.570242,102.566029 116.964444,101.082877 C117.358647,99.598769 118.131594,98.287743 119.281353,97.1497992 C121.197295,95.253545 123.204058,94.249477 125.301643,94.1375951 C127.398261,94.0257132 129.437874,94.9513683 131.422415,96.9145604 L143.427246,108.796989 L139.572174,112.612447 L128.581836,101.735043 C127.16058,100.41828 125.870725,99.7211697 124.708406,99.6427568 C123.548019,99.5653001 122.391498,100.095066 121.242705,101.232053 C120.588599,101.880394 120.120966,102.577504 119.838841,103.32434 C119.556715,104.073087 119.444638,104.831398 119.500676,105.601183 C119.557681,106.370969 119.766377,107.135017 120.126763,107.893327 C120.48715,108.652594 120.983768,109.343967 121.614686,109.968401 L131.928696,120.177383 L128.073623,123.992841 L110.589565,106.688446 Z" id="Fill-17" fill="#1D1D1B"></path>
                    <path d="M130.102802,87.3761052 L133.957874,83.5606467 L151.441932,100.865042 L147.58686,104.680501 L130.102802,87.3761052 Z M123.44,80.7817688 L126.326957,77.9254343 C126.862222,77.3956689 127.728889,77.3956689 128.264155,77.9254343 L130.948213,80.5819115 L127.09314,84.39737 L123.44,80.7817688 Z" id="Fill-19" fill="#1D1D1B"></path>
                </g>
            </g>
        </g>
    </g>
</svg>